<?xml version="1.0" encoding="UTF-8"?>
<svg id="Layer_1" data-name="Layer 1" xmlns="http://www.w3.org/2000/svg" viewBox="0 0 127.06 77.67">
  <defs>
    <style>
      .cls-1 {
        stroke-linecap: round;
        stroke-width: 2px;
      }

      .cls-1, .cls-2 {
        fill: none;
        stroke: #231f20;
        stroke-miterlimit: 10;
      }

      .cls-2 {
        stroke-width: .25px;
      }

      .cls-3 {
        fill: #231f20;
        font-family: Brixton-Sans-Regular, 'Brixton Sans';
        font-size: 17.73px;
        letter-spacing: 0em;
      }
    </style>
  </defs>
  <path class="cls-2" d="m83.51,39.03c-.44.58-.76.85-1.2,1.43,0-.03-.12.24-.12.2-.63-.35-1.29-.65-1.92-1"/>
  <g>
    <path class="cls-1" d="m55.09,14.78c.86-2.82,2.41-4.16,3.66-5.55,1.33-1.48,3.15-1.61,5.3-.67,1.76.77,3.81,1.81,4.13,3.7.25,1.5.43,3.24-.01,4.7-.6,2-1.51,4.08-3.33,5.52-1.86,1.48-1.2,1.96-1.59,2.3-.62.55-1.1,1.26-.64,1.94.19.28.42.47.63.65.4.36.32.99-.14,1.27-.31.18-.63.45-.71.6-.18.3-.08.69.08,1s.39.59.47.93c.09.37-.89.26-1.13.55-.31.38-.24.95.13,1.27,1.1.93,3.25,2.55,2.57,5.21-.24.93.29,1.86,1.22,2.09,3.13.79,5.95,1.95,7.72,2.75,2.1.94,3.36,1.44,5.55,2.15.53.17.93.59,1.42.84,3.46,1.74,5.75,3.22,8.62,4.5,2.33,1.17,4.64,2.34,6.97,3.51,4.25,2.4,9.12,4.27,13.11,7.24,1.17.87,1.37,2.74,2.42,3.75s2.46,1.25,3.92,1.22c1.12-.02,2.43-1.12,3.54-1,1.37.15,2.26,2.33,2.91,3.55.45.85,1.16,1.61,1.45,2.43.2.57-.23,1.17-.83,1.2-11.5.63-23.65-.46-35.1-.37-24.12.19-48.52-.25-72.32.22-4.21-.09-8.69.61-12.09-.72"/>
    <g>
      <g>
        <path class="cls-2" d="m62.17,33.31c.3-2.63,1.05-7.05,1.08-8.53"/>
        <g>
          <path class="cls-2" d="m107.25,59.9c-2.92-2.48-5.75-8.27-2.87-11.59-.46-1.15-1.1-2.58-.59-3.71.35-.77,1.07-1.29,1.76-1.77.85-.59,1.69-1.19,2.54-1.78-.45.5-.53,1.23-.46,1.9s.26,1.32.27,2c.01.98-.38,1.95-1.08,2.65s-1.46.72-2.44.71c.58-1.25.95-2.2,1.53-3.45s.97-2.78,2.08-3.63"/>
          <path class="cls-2" d="m107.76,45.17c-.59.23-1.53.41-2.12.64-.34-.66-.34-1.4-.68-2.06"/>
          <path class="cls-2" d="m104.16,55.86c-1-2.12-1.1-4.92-2.07-7.02-.3-.64-.62-1.29-1.12-1.8s-1.2-.86-1.9-.78c-.11-1.37-1.31-2.76-2.67-2.98-.95-.15-1.9.14-2.81.42-.95.3-2.25.67-3.21.97,2.54,1.13,6.11,3.51,8.69,1.59-2.31-1.51-5.32-1.95-8.07-1.65"/>
          <path class="cls-2" d="m94.93,43.36c.41.47.86,1.15,1.27,1.62-.94.24-1.8.49-2.31,1.31"/>
        </g>
        <path class="cls-2" d="m92.95,52.35c-3.03-1.52-10.28-4.48-10.08-8.72-1.02-.67-2.34-1.47-2.62-2.66-.19-.81.04-1.62.27-2.39.28-.94.57-1.89.85-2.83-.04.65.33,1.28.78,1.78s.97.92,1.38,1.46c.59.78.86,1.78.76,2.72s-.67,1.38-1.41,1.91c-.31-1.32-.59-2.29-.89-3.61s-.91-2.76-.59-4.06"/>
        <g>
          <path class="cls-2" d="m83.04,48.13c-.51-.97-2.07-1.52-3.44-1.16-.95.25-1.78.83-2.57,1.39-.82.59-1.96,1.36-2.78,1.95,2.76-.15,6.88.22,8.79-2.18-2.66-.22-5.67.62-8.21,1.89"/>
          <path class="cls-2" d="m79.29,47.4c.48.3,1.2.42,1.67.72-.93.33-1.96,1.01-2.38,1.73"/>
        </g>
        <g>
          <path class="cls-2" d="m105.91,58.56c-3.75-1.51-12.02-5.43-16.28-3.25-1.43-.43-3.21-1.02-4.64-.66-.97.25-1.65.81-2.28,1.35-.77.66-1.55,1.32-2.32,1.98.64-.34,1.57-.37,2.41-.28s1.66.27,2.5.31c1.23.06,2.47-.22,3.36-.75s.95-1.16.97-1.96c-1.59.41-2.8.67-4.39,1.08s-3.52.65-4.63,1.52"/>
          <path class="cls-2" d="m83.56,55.33l3.32.7c-.63.44-.99,1.22-.92,1.99"/>
        </g>
        <g>
          <path class="cls-2" d="m76.2,44.04c-3.21-2.09-9.56-3.17-11.92.53-1.23-.11-2.79-.32-3.72.49-.64.55-.93,1.39-1.2,2.19-.33.98-.66,1.96-.99,2.94.35-.57,1.03-.86,1.69-.98s1.34-.13,1.99-.31c.94-.27,1.77-.92,2.23-1.78s.28-1.61,0-2.54c-1.04.91-1.84,1.54-2.88,2.44s-2.39,1.72-2.89,3.02"/>
          <path class="cls-2" d="m62.21,48.71c.05-.63-.04-1.58.01-2.21-.73-.14-1.43.07-2.17-.06"/>
          <path class="cls-2" d="m71.45,42.23c-2.32-.35-5.03.34-7.32,0-.7-.1-1.41-.23-2.04-.56s-1.16-.9-1.28-1.6c-1.35.29-3.02-.47-3.62-1.72-.41-.86-.41-1.86-.39-2.82.02-1,0-2.35.02-3.35,1.8,2.12,5.1,4.87,3.98,7.89-2.11-1.79-3.38-4.55-3.87-7.27"/>
          <path class="cls-2" d="m56.84,36.92c.56.26,1.35.5,1.91.76-.04-.97-.04-1.86.61-2.58"/>
        </g>
        <g>
          <path class="cls-2" d="m74.78,43.47c1.48-.45,2.35-1.87,1.83-3.13-.36-.87-1.22-1.64-2.06-2.37-.87-.76-2.02-1.81-2.89-2.57.17,2.53-.49,6.29,3.12,8.07.39-2.43-.81-5.19-2.69-7.54"/>
          <path class="cls-2" d="m75.98,40.05c-.47.43-.66,1.09-1.12,1.52-.48-.85-1.49-1.81-2.57-2.2"/>
        </g>
        <g>
          <path class="cls-2" d="m72.45.9c-1.11.85-1.49,2.36-2.08,3.63-.58,1.25-.95,2.2-1.53,3.45.98,0,1.75-.02,2.44-.71s1.09-1.67,1.08-2.65c0-.67-.2-1.33-.27-2s.01-1.4.46-1.9c-.85.59-1.69,1.19-2.54,1.78-.69.48-1.41,1-1.76,1.77-.51,1.12.13,2.56.59,3.71-.66,1.64-.78,3.6-.39,5.32"/>
          <path class="cls-2" d="m72.22,4.83c-.59.23-1.53.41-2.12.64-.34-.66-.34-1.4-.68-2.06"/>
          <path class="cls-2" d="m68.63,15.53c-1-2.12-1.1-4.92-2.07-7.02-.3-.64-.62-1.29-1.12-1.8s-1.2-.86-1.9-.78c-.11-1.37-1.31-2.76-2.67-2.98-.95-.15-1.9.14-2.81.42-.95.3-2.25.67-3.21.97,2.54,1.13,6.11,3.51,8.69,1.59-2.31-1.51-5.32-1.95-8.07-1.65"/>
          <path class="cls-2" d="m59.4,3.03c.41.47.86,1.15,1.27,1.62-.94.24-1.8.49-2.31,1.31"/>
        </g>
        <g>
          <path class="cls-2" d="m77.56,44.38c-3.03-1.52-10.28-4.48-10.08-8.72-1.02-.67-2.34-1.47-2.62-2.66-.19-.81.04-1.62.27-2.39.28-.94.57-1.89.85-2.83-.04.65.33,1.28.78,1.78s.97.92,1.38,1.46c.59.78.86,1.78.76,2.72s-.67,1.38-1.41,1.91c-.31-1.32-.59-2.29-.89-3.61s-.91-2.76-.59-4.06"/>
          <path class="cls-2" d="m68.33,31.52l-1.47,1.63c-.65-.29-1.3-.58-1.95-.87"/>
        </g>
        <g>
          <path class="cls-2" d="m75.14,25.97c-.36-.53-.75-1.4-1.11-1.93.55-.48,1.25-.65,1.8-1.13"/>
          <g>
            <path class="cls-2" d="m61.81,31.73c1.67-3.43,5.7-10.4,9.54-8.33.98-.71,2.19-1.67,3.38-1.43.81.17,1.47.75,2.1,1.32.77.69,1.53,1.39,2.3,2.08-.58-.32-1.3-.23-1.92-.01s-1.2.56-1.83.72c-.93.24-1.95.07-2.77-.44s-1.03-1.27-1.26-2.23c1.32.28,2.32.42,3.64.7s2.87.31,3.94,1.2"/>
            <path class="cls-2" d="m63.26,28.79c1.56-2.82,4.67-5.29,6.35-6.35.51-.33.77-.65,1.1-1.15s.7-1.27.49-1.82c1.14-.37,2.08-1.63,2-2.78-.06-.8-.49-1.51-.91-2.2-.44-.71-1.01-1.69-1.45-2.4-.45,2.29-1.77,5.67.36,7.37.83-2.18.6-4.71-.18-6.88"/>
          </g>
          <path class="cls-2" d="m72.84,15.51c-.31.43-.8.93-1.12,1.36-.39-.71-.77-1.36-1.56-1.6"/>
        </g>
        <g>
          <path class="cls-2" d="m60,8.33c-1.9,1.85-2.7,2.65-6.42,1.89-.97.77-2.16,1.79-3.39,1.62-.83-.12-1.54-.66-2.2-1.18-.81-.64-1.62-1.29-2.43-1.93.61.29,1.33.16,1.96-.1s1.2-.62,1.84-.82c.93-.29,1.98-.19,2.84.28s1.11,1.2,1.38,2.14c-1.36-.2-2.38-.29-3.75-.48s-2.94-.14-4.07-.96"/>
          <path class="cls-2" d="m49.6,7.88c.39.5.83,1.34,1.22,1.85-.54.51-1.24.72-1.78,1.23"/>
          <path class="cls-2" d="m60.87,8.29c-1.75,1.56-4.41,2.46-6.14,3.98-.53.47-1.06.96-1.41,1.58s-.48,1.39-.2,2.04c-1.29.49-2.28,2.04-2.1,3.41.12.95.67,1.78,1.21,2.58.56.83,1.28,1.97,1.84,2.8.36-2.76,1.63-6.86-.95-8.78-.79,2.65-.36,5.66.7,8.21"/>
          <path class="cls-2" d="m51.51,20.69c.33-.53.86-1.15,1.19-1.68.49.83.98,1.58,1.91,1.84"/>
        </g>
      </g>
      <text class="cls-3" transform="translate(0 71.72)"><tspan x="0" y="0">The Swap Shop</tspan></text>
    </g>
  </g>
</svg>